# xmcd
#
# Track frame offsets: 
#        150
#        31831
#        80072
#        106316
#        126162
#        190206
#        193874
#
# Disc length: 2977 seconds
#
# Revision: 0
# Processed by: cddbd v1.5.2PL0 Copyright (c) Steve Scherf et al.
# Submitted via: ExactAudioCopy v1.0b1
#
DISCID=5b0b9f07
DTITLE=Eric Clapton  - Remarkable Milestone - Royal Albert Hall  5-19-
DTITLE=09l - Disc 2
DYEAR=1900
DGENRE=
TTITLE0=Badge
TTITLE1=Little Queen Of Spades
TTITLE2=Everything Gonna Be Alright
TTITLE3=Wonderful Tonight
TTITLE4=Cocaine
TTITLE5=Annoucement for the 150th show of E.C at The RAH
TTITLE6=Crossroads
EXTD=
EXTT0=
EXTT1=
EXTT2=
EXTT3=
EXTT4=
EXTT5=
EXTT6=
PLAYORDER=
